<svg width="94" height="40" viewBox="0 0 94 40" fill="none" xmlns="http://www.w3.org/2000/svg">
<g id="Logo" clip-path="url(#clip0_4136_226)">
<path id="Vector" d="M35.4017 11.0821V14.5513C35.4017 16.3941 34.7519 17.6121 32.8273 17.6121H29.17C27.6786 17.6121 26.6773 16.7457 26.6773 14.7395V2.62761C26.6773 0.784731 27.462 0 29.1416 0H32.7741C34.8868 0 35.4017 0.923213 35.4017 2.92588V5.55348H32.7741V2.52108H29.3333V15.0945H32.7741V11.0857H35.4017V11.0821Z" fill="#1D2B41"/>
<path id="Vector_2" d="M40.7137 11.5189H43.5047L42.34 2.63116H41.9352L40.7173 11.5189H40.7137ZM43.8278 13.9299H40.387L39.8722 17.6156H37.1878L39.8189 0H44.4243L47.0271 17.6156H44.3178L43.8313 13.9299H43.8278Z" fill="#1D2B41"/>
<path id="Vector_3" d="M55.0768 2.52108H51.771V10.7057H55.0768V2.52108ZM49.1398 0H55.5348C57.1895 0 57.7044 0.8664 57.7044 3.08921V10.2157C57.7044 12.0586 57.0546 13.1167 55.3467 13.1167H51.771V17.6156H49.1434V0H49.1398Z" fill="#1D2B41"/>
<path id="Vector_4" d="M62.9028 0H60.2219V17.6156H62.9028V0Z" fill="#1D2B41"/>
<path id="Vector_5" d="M68.1616 2.52108H64.9658V0H74.0169V2.52108H70.8176V17.6156H68.1616V2.52108Z" fill="#1D2B41"/>
<path id="Vector_6" d="M81.605 2.52108H78.0009V15.0945H81.605V2.52108ZM75.3449 14.7146V2.70928C75.3449 0.923213 76.1296 0 77.7843 0H81.6582C83.636 0 84.261 0.948069 84.261 2.92588V14.5229C84.261 16.5007 83.4478 17.6121 81.6866 17.6121H77.8376C76.3746 17.6121 75.3449 16.7173 75.3449 14.7111" fill="#1D2B41"/>
<path id="Vector_7" d="M86.427 0H89.083V15.0945H93.905V17.6156H86.427V0Z" fill="#1D2B41"/>
<path id="Vector_8" d="M35.4017 33.3814V36.8506C35.4017 38.6935 34.7519 39.9114 32.8273 39.9114H29.17C27.6786 39.9114 26.6773 39.045 26.6773 37.0388V24.9269C26.6773 23.084 27.462 22.2993 29.1416 22.2993H32.7741C34.8868 22.2993 35.4017 23.2225 35.4017 25.2252V27.8528H32.7741V24.8168H29.3333V37.3903H32.7741V33.3779H35.4017V33.3814Z" fill="#1D2B41"/>
<path id="Vector_9" d="M43.5579 24.8165H39.9538V37.39H43.5579V24.8165ZM37.2978 37.01V25.0047C37.2978 23.2151 38.0826 22.2954 39.7372 22.2954H43.6112C45.589 22.2954 46.2139 23.2435 46.2139 25.2213V36.8183C46.2139 38.7961 45.4008 39.9075 43.6396 39.9075H39.7905C38.3276 39.9075 37.2978 39.0127 37.2978 37.0065" fill="#1D2B41"/>
<path id="Vector_10" d="M51.0359 33.8143H53.8269L52.6622 24.9266H52.2574L51.0395 33.8143H51.0359ZM54.1536 36.2253H50.7128L50.198 39.911H47.5135L50.1411 22.2954H54.7466L57.3493 39.911H54.64L54.1536 36.2253Z" fill="#1D2B41"/>
<path id="Vector_11" d="M67.7035 36.8502C67.7035 38.7996 66.8904 39.911 65.1576 39.911H61.6068C60.1722 39.911 59.1389 38.9878 59.1389 36.9852V34.0841H61.7665V37.4184H65.0723V33.4876L60.3036 30.3984C59.4372 29.8303 59.1389 29.2586 59.1389 28.069V24.8698C59.1389 23.0553 59.9237 22.2954 61.6068 22.2954H65.1292C67.0537 22.2954 67.7035 23.1618 67.7035 25.2213V27.7956H65.0759V24.7881H61.7701V28.1756L66.5388 31.2364C67.4336 31.8045 67.7035 32.3478 67.7035 33.5657V36.8431V36.8502Z" fill="#1D2B41"/>
<path id="Vector_12" d="M72.1207 24.8165H68.9214V22.2954H77.9725V24.8165H74.7767V39.911H72.1207V24.8165Z" fill="#1D2B41"/>
<path id="Vector_13" d="M3.41234 0.074707H0.0142021V40.0037H3.41234V0.074707Z" fill="#E4B271"/>
<path id="Vector_14" d="M9.99556 6.7251H6.67199V33.3421H9.99556V6.7251Z" fill="#E4B271"/>
<path id="Vector_15" d="M19.984 36.666H0V40.0002H19.984V36.666Z" fill="#E4B271"/>
<path id="Vector_16" d="M19.9805 0.0708008H1.94585V3.39437H19.9805V0.0708008Z" fill="#E4B271"/>
<path id="Vector_17" d="M19.9805 6.7251H6.66489V10.0451H19.9805V6.7251Z" fill="#E4B271"/>
<path id="Vector_18" d="M19.984 30.0186H6.67199V33.3386H19.984V30.0186Z" fill="#E4B271"/>
</g>
<defs>
<clipPath id="clip0_4136_226">
<rect width="93.905" height="40" fill="white"/>
</clipPath>
</defs>
</svg>
