<svg width="132" height="56" viewBox="0 0 132 56" fill="none" xmlns="http://www.w3.org/2000/svg">
<g id="Logo" clip-path="url(#clip0_4018_169)">
<path id="Vector" d="M49.5623 15.515V20.3718C49.5623 22.9518 48.6525 24.6569 45.9582 24.6569H40.8379C38.75 24.6569 37.3481 23.4439 37.3481 20.6352V3.67865C37.3481 1.09862 38.4468 0 40.7981 0H45.8836C48.8414 0 49.5623 1.2925 49.5623 4.09623V7.77488H45.8836V3.52952H41.0666V21.1324H45.8836V15.5199H49.5623V15.515Z" fill="white"/>
<path id="Vector_2" d="M56.9993 16.1264H60.9067L59.2761 3.68362H58.7094L57.0043 16.1264H56.9993ZM61.359 19.5018H56.542L55.8212 24.6619H52.063L55.7466 0H62.1942L65.838 24.6619H62.0451L61.364 19.5018H61.359Z" fill="white"/>
<path id="Vector_3" d="M77.1077 3.52952H72.4795V14.988H77.1077V3.52952ZM68.7959 0H77.7489C80.0655 0 80.7863 1.21296 80.7863 4.3249V14.302C80.7863 16.882 79.8766 18.3634 77.4855 18.3634H72.4795V24.6619H68.8009V0H68.7959Z" fill="white"/>
<path id="Vector_4" d="M88.0638 0H84.3105V24.6619H88.0638V0Z" fill="white"/>
<path id="Vector_5" d="M95.4262 3.52952H90.9521V0H103.624V3.52952H99.1446V24.6619H95.4262V3.52952Z" fill="white"/>
<path id="Vector_6" d="M114.247 3.52952H109.201V21.1324H114.247V3.52952ZM105.483 20.6004V3.79299C105.483 1.2925 106.582 0 108.898 0H114.322C117.091 0 117.965 1.3273 117.965 4.09623V20.332C117.965 23.1009 116.827 24.6569 114.361 24.6569H108.973C106.925 24.6569 105.483 23.4042 105.483 20.5955" fill="white"/>
<path id="Vector_7" d="M120.998 0H124.716V21.1324H131.467V24.6619H120.998V0Z" fill="white"/>
<path id="Vector_8" d="M49.5623 46.7337V51.5905C49.5623 54.1705 48.6525 55.8757 45.9582 55.8757H40.8379C38.75 55.8757 37.3481 54.6627 37.3481 51.854V34.8974C37.3481 32.3174 38.4468 31.2188 40.7981 31.2188H45.8836C48.8414 31.2188 49.5623 32.5112 49.5623 35.315V38.9936H45.8836V34.7433H41.0666V52.3461H45.8836V46.7287H49.5623V46.7337Z" fill="white"/>
<path id="Vector_9" d="M60.9809 34.7434H55.9352V52.3462H60.9809V34.7434ZM52.2168 51.8143V35.0069C52.2168 32.5014 53.3154 31.2139 55.632 31.2139H61.0555C63.8244 31.2139 64.6993 32.5412 64.6993 35.3101V51.5459C64.6993 54.3148 63.561 55.8708 61.0953 55.8708H55.7065C53.6584 55.8708 52.2168 54.618 52.2168 51.8093" fill="white"/>
<path id="Vector_10" d="M71.4504 47.3403H75.3577L73.7272 34.8975H73.1605L71.4554 47.3403H71.4504ZM75.8151 50.7157H70.9981L70.2772 55.8757H66.519L70.1977 31.2139H76.6453L80.2891 55.8757H76.4961L75.8151 50.7157Z" fill="white"/>
<path id="Vector_11" d="M94.7848 51.5906C94.7848 54.3198 93.6465 55.8757 91.2205 55.8757H86.2494C84.241 55.8757 82.7944 54.5832 82.7944 51.7795V47.7181H86.4731V52.386H91.1012V46.8829L84.425 42.558C83.212 41.7626 82.7944 40.9623 82.7944 39.297V34.818C82.7944 32.2777 83.8931 31.2139 86.2494 31.2139H91.1808C93.8751 31.2139 94.7848 32.4268 94.7848 35.3101V38.9142H91.1062V34.7036H86.4781V39.4461L93.1543 43.7312C94.407 44.5266 94.7848 45.2872 94.7848 46.9923V51.5807V51.5906Z" fill="white"/>
<path id="Vector_12" d="M100.969 34.7434H96.4902V31.2139H109.162V34.7434H104.688V55.8757H100.969V34.7434Z" fill="white"/>
<path id="Vector_13" d="M4.77741 0.104492H0.0200195V56.0051H4.77741V0.104492Z" fill="#E4B271"/>
<path id="Vector_14" d="M13.9938 9.41553H9.34082V46.6793H13.9938V9.41553Z" fill="#E4B271"/>
<path id="Vector_15" d="M27.9776 51.332H0V55.9999H27.9776V51.332Z" fill="#E4B271"/>
<path id="Vector_16" d="M27.9726 0.0996094H2.72412V4.75261H27.9726V0.0996094Z" fill="#E4B271"/>
<path id="Vector_17" d="M27.9724 9.41553H9.33057V14.0636H27.9724V9.41553Z" fill="#E4B271"/>
<path id="Vector_18" d="M27.9777 42.0259H9.34082V46.6739H27.9777V42.0259Z" fill="#E4B271"/>
</g>
<defs>
<clipPath id="clip0_4018_169">
<rect width="131.467" height="56" fill="white"/>
</clipPath>
</defs>
</svg>
