<svg width="16" height="15" viewBox="0 0 16 15" fill="none" xmlns="http://www.w3.org/2000/svg">
<path id="Vector" d="M14.2516 10.4509C14.4738 10.4509 14.659 10.525 14.8071 10.6731C14.9553 10.8213 15.0294 11.0065 15.0294 11.2287V14.0065C15.0294 14.2287 14.9553 14.4139 14.8071 14.562C14.659 14.7102 14.4738 14.7842 14.2516 14.7842C10.5232 14.7842 7.35035 13.4756 4.73306 10.8583C2.11576 8.24101 0.807129 5.0682 0.807129 1.33979C0.807129 1.11757 0.881202 0.932383 1.02935 0.784234C1.1775 0.636085 1.36268 0.562012 1.58491 0.562012H4.36269C4.58491 0.562012 4.77009 0.636085 4.91824 0.784234C5.06639 0.932383 5.14046 1.11757 5.14046 1.33979C5.14046 2.35214 5.30096 3.30275 5.62194 4.19164C5.72071 4.48794 5.65898 4.7472 5.43676 4.96942L3.69602 6.71016C4.88121 9.00647 6.62193 10.7472 8.91824 11.9324L10.659 10.1916C10.8318 9.96942 11.0911 9.90769 11.4368 10.0065C12.3997 10.3028 13.338 10.4509 14.2516 10.4509Z" fill="#E4B271"/>
</svg>
